<?xml version="1.0" encoding="UTF-8" standalone="no"?>
<!DOCTYPE svg PUBLIC "-//W3C//DTD SVG 1.1//EN"
 "http://www.w3.org/Graphics/SVG/1.1/DTD/svg11.dtd">
<!-- Generated by graphviz version 2.43.0 (0)
 -->
<!-- Title: G Pages: 1 -->
<svg width="1440pt" height="393pt"
 viewBox="0.00 0.00 1439.50 393.00" xmlns="http://www.w3.org/2000/svg" xmlns:xlink="http://www.w3.org/1999/xlink">
<g id="graph0" class="graph" transform="scale(1 1) rotate(0) translate(4 389)">
<title>G</title>
<polygon fill="white" stroke="transparent" points="-4,4 -4,-389 1435.5,-389 1435.5,4 -4,4"/>
<!-- AppComponent -->
<g id="node1" class="node">
<title>AppComponent</title>
<polygon fill="none" stroke="black" points="0,-0.5 0,-311.5 620,-311.5 620,-0.5 0,-0.5"/>
<text text-anchor="middle" x="310" y="-296.3" font-family="Arial" font-size="14.00">AppComponent</text>
<text text-anchor="start" x="8" y="-281.3" font-family="Arial" font-size="14.00">import(&quot;/home/shaun/Development/video&#45;text&#45;prompt/src/app/video&#45;player/video&#45;player.component&quot;)</text>
<polyline fill="none" stroke="black" points="0,-257.5 620,-257.5 "/>
<text text-anchor="start" x="8" y="-242.3" font-family="Arial" font-size="14.00">+title: string</text>
<text text-anchor="start" x="8" y="-227.3" font-family="Arial" font-size="14.00">+imageChangedEvent: any</text>
<text text-anchor="start" x="8" y="-212.3" font-family="Arial" font-size="14.00">+imageTempFile: File</text>
<text text-anchor="start" x="8" y="-197.3" font-family="Arial" font-size="14.00">+croppedImage: any</text>
<text text-anchor="start" x="8" y="-182.3" font-family="Arial" font-size="14.00">+speechRecognition: any</text>
<text text-anchor="start" x="8" y="-167.3" font-family="Arial" font-size="14.00">+promptText: string</text>
<text text-anchor="start" x="8" y="-152.3" font-family="Arial" font-size="14.00">+videoPlayerComponent: VideoPlayerComponent</text>
<text text-anchor="start" x="8" y="-137.3" font-family="Arial" font-size="14.00">+selectedTabIndex: number</text>
<polyline fill="none" stroke="black" points="0,-113.5 620,-113.5 "/>
<text text-anchor="start" x="8" y="-98.3" font-family="Arial" font-size="14.00">+saveAllImagesAndDescriptions: (folderPath: string) =&gt; void</text>
<text text-anchor="start" x="8" y="-83.3" font-family="Arial" font-size="14.00">+fileChangeEvent: (event: Event) =&gt; void</text>
<text text-anchor="start" x="8" y="-68.3" font-family="Arial" font-size="14.00">+imageCropped: (event: ImageCroppedEvent) =&gt; void</text>
<text text-anchor="start" x="8" y="-53.3" font-family="Arial" font-size="14.00">+startSpeechRecognition: () =&gt; void</text>
<text text-anchor="start" x="8" y="-38.3" font-family="Arial" font-size="14.00">+stopSpeechRecognition: () =&gt; void</text>
<text text-anchor="start" x="8" y="-23.3" font-family="Arial" font-size="14.00">+savePrompt: () =&gt; void</text>
<text text-anchor="start" x="8" y="-8.3" font-family="Arial" font-size="14.00">+setCurrentFrameAsImage: () =&gt; void</text>
</g>
<!-- PreviewComponent -->
<g id="node2" class="node">
<title>PreviewComponent</title>
<polygon fill="none" stroke="black" points="638,-38 638,-274 1170,-274 1170,-38 638,-38"/>
<text text-anchor="middle" x="904" y="-258.8" font-family="Arial" font-size="14.00">PreviewComponent</text>
<text text-anchor="start" x="646" y="-243.8" font-family="Arial" font-size="14.00">import(&quot;/home/shaun/Development/video&#45;text&#45;prompt/src/app/image&#45;storage.service&quot;)</text>
<polyline fill="none" stroke="black" points="638,-220 1170,-220 "/>
<text text-anchor="start" x="646" y="-204.8" font-family="Arial" font-size="14.00">+imageList: ImageData[]</text>
<text text-anchor="start" x="646" y="-189.8" font-family="Arial" font-size="14.00">+selectedIndex: number</text>
<text text-anchor="start" x="646" y="-174.8" font-family="Arial" font-size="14.00">&#45;imageListSubscription: Subscription</text>
<text text-anchor="start" x="646" y="-159.8" font-family="Arial" font-size="14.00">+folderPath: string</text>
<polyline fill="none" stroke="black" points="638,-136 1170,-136 "/>
<text text-anchor="start" x="646" y="-120.8" font-family="Arial" font-size="14.00">+ngOnInit: () =&gt; void</text>
<text text-anchor="start" x="646" y="-105.8" font-family="Arial" font-size="14.00">+ngOnDestroy: () =&gt; void</text>
<text text-anchor="start" x="646" y="-90.8" font-family="Arial" font-size="14.00">+previous: () =&gt; void</text>
<text text-anchor="start" x="646" y="-75.8" font-family="Arial" font-size="14.00">+next: () =&gt; void</text>
<text text-anchor="start" x="646" y="-60.8" font-family="Arial" font-size="14.00">+saveAllImagesAndDescriptions: (folderPath: string) =&gt; void</text>
<text text-anchor="start" x="646" y="-45.8" font-family="Arial" font-size="14.00">+updatePromptText: (promptText: string) =&gt; void</text>
</g>
<!-- VideoPlayerComponent -->
<g id="node3" class="node">
<title>VideoPlayerComponent</title>
<polygon fill="none" stroke="black" points="1188.5,-60 1188.5,-252 1431.5,-252 1431.5,-60 1188.5,-60"/>
<text text-anchor="middle" x="1310" y="-236.8" font-family="Arial" font-size="14.00">VideoPlayerComponent</text>
<polyline fill="none" stroke="black" points="1188.5,-197 1431.5,-197 "/>
<text text-anchor="start" x="1196.5" y="-181.8" font-family="Arial" font-size="14.00">+videoPlayer: ElementRef</text>
<text text-anchor="start" x="1196.5" y="-166.8" font-family="Arial" font-size="14.00">+selectedFile: File</text>
<text text-anchor="start" x="1196.5" y="-151.8" font-family="Arial" font-size="14.00">+videoSrc: any</text>
<text text-anchor="start" x="1196.5" y="-136.8" font-family="Arial" font-size="14.00">+isPlaying: boolean</text>
<polyline fill="none" stroke="black" points="1188.5,-113 1431.5,-113 "/>
<text text-anchor="start" x="1196.5" y="-97.8" font-family="Arial" font-size="14.00">+onFileSelected: (event: any) =&gt; void</text>
<text text-anchor="start" x="1196.5" y="-82.8" font-family="Arial" font-size="14.00">+playPauseVideo: () =&gt; void</text>
<text text-anchor="start" x="1196.5" y="-67.8" font-family="Arial" font-size="14.00">+moveFrame: (step: number) =&gt; void</text>
</g>
<!-- AppModule -->
<g id="node4" class="node">
<title>AppModule</title>
<polygon fill="none" stroke="black" points="861,-348.5 861,-384.5 947,-384.5 947,-348.5 861,-348.5"/>
<text text-anchor="middle" x="904" y="-362.8" font-family="Arial" font-size="14.00">AppModule</text>
</g>
<!-- AppModule&#45;&gt;AppComponent -->
<g id="edge1" class="edge">
<title>AppModule&#45;&gt;AppComponent</title>
<path fill="none" stroke="black" d="M860.72,-360.62C807.76,-353.88 715.55,-339.65 629.83,-312.16"/>
<polygon fill="black" stroke="black" points="630.81,-308.8 620.22,-309.01 628.63,-315.45 630.81,-308.8"/>
</g>
<!-- AppModule&#45;&gt;PreviewComponent -->
<g id="edge3" class="edge">
<title>AppModule&#45;&gt;PreviewComponent</title>
<path fill="none" stroke="black" d="M904,-348.44C904,-333.33 904,-309.76 904,-284.25"/>
<polygon fill="black" stroke="black" points="907.5,-284.01 904,-274.01 900.5,-284.01 907.5,-284.01"/>
</g>
<!-- AppModule&#45;&gt;VideoPlayerComponent -->
<g id="edge2" class="edge">
<title>AppModule&#45;&gt;VideoPlayerComponent</title>
<path fill="none" stroke="black" d="M947.12,-365.76C1004.04,-364.26 1105.59,-355.08 1179,-312 1201.77,-298.64 1222.43,-279.82 1240.27,-259.89"/>
<polygon fill="black" stroke="black" points="1243.04,-262.04 1246.97,-252.2 1237.76,-257.44 1243.04,-262.04"/>
</g>
</g>
</svg>
